/* XPM */
static char *_4721_4aeb43f8c466364d657991d81840a7452d999d7ad0ce56b98f656b2aa252b22e[] = {
/* columns rows colors chars-per-pixel */
"32 32 6 1 ",
"  c #70593B",
". c #7C6747",
"X c #917C5B",
"o c #9C8A66",
"O c #A89672",
"+ c #BAA781",
/* pixels */
"OOOOOOOOOOOOOOOOOOOOOOOOOOOOOOOO",
"OoXOoOoXXXXoXXXXXXXXoXooOOXXOooO",
"XXXXXXXXoOoXOOOooXooXXXXXXXXXXXX",
"ooooXXoXXXXXXXXXXXXXXoOOOoOOooOo",
"XXOOoOOoXoXoooooooXoXXXXXXXXXXXX",
"oooXXXXXXXOXXOOOXXXXooXXoOOoOoXO",
"++++++++++++++++++++++++++++++++",
"...  .  ..   . ...  ... .... . .",
"OOOOOOOOOOOOOOOOOOOOOOOOOOOOOOOO",
"XXXXXXoXoOOOooOOXXOXXXXXXOOOOooX",
"OOoOooXOXXXXXXXoooXoXoOOoXXXXXXX",
"XXXXXXoXooOOooOXXXXXXXXXXXoOXoOo",
"oOOOoXXXXXXXXXXXoXoXoOOooXXXXXXX",
"XXXXXoXoXooOOOoOXOXXXXXXXOOoXooX",
"++++++++++++++++++++++++++++++++",
" ... . .. ..  ... .... . .  ..  ",
"OOOOOOOOOOOOOOOOOOOOOOOOOOOOOOOO",
"XXXXXoOOoOoXoXoXoOoXoOoXXXXXXXXX",
"ooOooXXXXXXXXXXXXXXXXXXoOXOOOOoX",
"XXXXXooOoXoOOoOoOOOoXoXXXXXXXXXX",
"OOooXXXXXXXXXXXXXXXXXXXXXoooXXOo",
"XXXXXoOXoOOoXooXoXXoooOOXOXOXXXX",
"++++++++++++++++++++++++++++++++",
".  . .. .. ...  ... . . ... ....",
"OOOOOOOOOOOOOOOOOOOOOOOOOOOOOOOO",
"oXooXXXXXXoOOXoXooOOoOooXXoXoXoo",
"XXXXoOOOoXXoooooXXXXXXXOOoooXXXX",
"oOooXXXXXXXXXXXXoXoOOOOXXXoOOOoO",
"XXXXXXoXoOoOOOooXXXXXXXXooXXXXXX",
"OOooOXXOXXXXXXXXXooOoOOXXOoOOooo",
"++++++++++++++++++++++++++++++++",
".. ..... . .... .  .... .  . ..."
};
