/* XPM */
static char *_4419_b63d846054660051c04a1203da1409e20ebb01a96b206d2a0a40ae0a50161e06[] = {
/* columns rows colors chars-per-pixel */
"32 32 16 1 ",
"  c #2E1E22",
". c #353535",
"X c #5C2E00",
"o c gray29",
"O c gray33",
"+ c #615C7C",
"@ c #928A8C",
"# c #979799",
"$ c #BDA0B8",
"% c #EDB2E0",
"& c #C9C9CB",
"* c #D9D9DD",
"= c #FFCDEC",
"- c #EBEBED",
"; c white",
": c None",
/* pixels */
"::::::::::::::::::::::::::::::::",
"::::::::::::::::::....::::::::::",
":::::::::::::.....oooo..::::::::",
":::::::::::..ooOO+++++Oo.:::::::",
"::::::::::.oOO++++++OOo.::::::::",
":::::::::.oOO+++++OOoo.:::::::::",
"::::::::.oOO+++++Ooo...:::::::::",
"::::::::.$$O+++++++O$$.:::::::::",
"::::::...$%%%=====%%%$...:::::::",
"::::..oooOO%=======%OOooo..:::::",
":::.ooO+++++++++++++++OOooo.::::",
"::::.ooO+++++++++++++++OOOoo.:::",
":::::..oOO+++++++++++OOOoo..::::",
"::::::#..ooOOOOOOOOOoo....::::::",
"::::::#-;.............;-#:::::::",
"::::::#-;;;* ;;;;;;;;;;-#:::::::",
"::::::#-;;;@ ;;;;;;;;;;-#:::::::",
"::::::#-;;;  ;;;;;;;;;;-#:::::::",
"::::::#-;;;XX;;;;;;;;;;-#:::::::",
"::::::#-;;;;;;;;;;;;;;;-#:::::::",
":::::#*&-;;;-;;;;;;;;;--#:::::::",
":::::#*#-;;#;;;;;;;;;;-*#:::::::",
":::::#&#-;#;;*#*;;;;;--&#:::::::",
"::::::##*-#;-#;;;;;;--*#::::::::",
":::::::#&*-##--------*&#::::::::",
"::::::::#&*---------*&####::::::",
"::::::::#&&*-------*&&&&&&#:#:::",
":::::::::#&&&*****&&&&&&&&&#&#::",
"::::::::::#&&&&&&&&&&&&&##&&&#::",
":::::::::::##&&&&&&&&&##::###:::",
":::::::::::::#########::::::::::",
"::::::::::::::::::::::::::::::::"
};
