/* XPM */
static char *_9356_240f0895288f72dcfecaa4b42b4ed18979bb63a3066e7f4440ddc49dbb33eb96[] = {
/* columns rows colors chars-per-pixel */
"32 32 16 1 ",
"  c #2E1E22",
". c #353535",
"X c #5C2E00",
"o c gray29",
"O c gray33",
"+ c #615C7C",
"@ c #928A8C",
"# c #979799",
"$ c #BDA0B8",
"% c #EDB2E0",
"& c #C9C9CB",
"* c #D9D9DD",
"= c #FFCDEC",
"- c #EBEBED",
"; c white",
": c None",
/* pixels */
"::::::::::::::::::::::::::::::::",
":::::::::::.........::::::::::::",
":::::::::..ooOOOOOoo..::::::::::",
"::::::::.oOO+++++++OOo.:::::::::",
":::::::::..oOOO+++++OOo.::::::::",
"::::::::::...ooO+++++OOo.:::::::",
"::::::::::.$$O+++++++O$$.:::::::",
"::::::::...$%%%=====%%%$...:::::",
"::::::..oooOO%=======%OOooo..:::",
":::::.oooOO+++++++++++++++Ooo.::",
"::::.ooOOO+++++++++++++++Ooo.:::",
":::::..ooOOO+++++++++++OOo..::::",
":::::::....ooOOOOOOOOOoo..#:::::",
"::::::::#-;.............;-#:::::",
"::::::::#-;;;;;;;;;; *;;;-#:::::",
"::::::::#-;;;;;;;;;; @;;;-#:::::",
"::::::::#-;;;;;;;;;;  ;;;-#:::::",
"::::::::#-;;;;;;;;;;XX;;;-#:::::",
"::::::::#-;;;;;;;;;;;;;;;-#:::::",
"::::::::#--;;;;;;;;;-;;;-&*#::::",
"::::::::#*-;;;;;;;;;;#;;-#*#::::",
"::::::::#&--;;;;;*#*;;#;-#&#::::",
":::::::::#*--;;;;;;#-;#-*##:::::",
"::::####:#&*--------##-*&#::::::",
":::#&&&&###&*---------*&#:::::::",
"::####&&&&&&&*-------*&&#:::::::",
"::::::#&&&&&&&&*****&&&#::::::::",
":::::::##&&&&&&&&&&&&&#:::::::::",
":::::::::##&&&&&&&&&##::::::::::",
":::::::::::#########::::::::::::",
"::::::::::::::::::::::::::::::::",
"::::::::::::::::::::::::::::::::"
};
