/* XPM */
static char *c81edae7addb46b5cada7cc5ac989e1fIdIchNQ4YD3jw7nb[] = {
/* columns rows colors chars-per-pixel */
"32 32 43 1 ",
"  c #231F20",
". c #312C24",
"X c #403B28",
"o c #4F422E",
"O c #52422C",
"+ c #614A36",
"@ c #624F35",
"# c #69573B",
"$ c #6C593D",
"% c #70593B",
"& c #75593A",
"* c #6A5B43",
"= c #786344",
"- c #7C6747",
"; c #7B694C",
": c #7E6C4E",
"> c #8C6940",
", c #9C7547",
"< c #847152",
"1 c #877354",
"2 c #847556",
"3 c #897556",
"4 c #877759",
"5 c #887858",
"6 c #8C7858",
"7 c #8E7A59",
"8 c #8E7D5C",
"9 c #917C5B",
"0 c #8F7F60",
"q c #AB804F",
"w c #928263",
"e c #958567",
"r c #998867",
"t c #9C8A66",
"y c #9C8B6A",
"u c #9F8E6C",
"i c #9E8E6D",
"p c #BC9263",
"a c #A89672",
"s c #AD9B78",
"d c #B4A17C",
"f c #DDAB75",
"g c #BAA781",
/* pixels */
"aaaaaaaaaaaaaaaaaaaaaaaaaaaaaaaa",
"at9atat9999t++++++XXt9ttaa99atta",
"99999999ta++>qqqqq>+XX9999999999",
"tttt99t99+>q&++++++>>+Xaataattat",
"99aataat+>&+..X.Xoo.+>+X99999999",
"ttt9999+>q+  ..X.XoX.+>+Xaatat9a",
"ggggggg+>p+   . ..XoX+q&Xggggggg",
"---%%-%+>p+  . . ..X.+q&X---%-%-",
"aaaaaaaX&p>     . ...+p+Xaaaaaaa",
"999999XX+&p>+      +&p&+XXaaatt9",
"aatato++X+&pp&++++&>q&+X.XX99999",
"9999o+&>&X++&qqqqq>&&+X.XXoX9tat",
"taaa+&>,,&XX++++++++X..XXo+X9999",
"999o&>,qqq,&XXX......XXXo++oXtt9",
"gggo&,qqpppq&+oXXXXXXXXooo++Xggg",
"%--o>qqpffppqq>&+oooooooooo+X-%%",
"aaao>qqpfffpppq,>>>&&+++ooo+Xaaa",
"7wwO>qqpfffpppqq,>>>&&++ooooX799",
"ttaO>,qpppppppqq,>>>&&+++ooo.rt9",
"77wO&,qqpppppqqq,>>>&&+++oooo:79",
"aat3O>,qqpppqqqq,>>&&&++@ooX*;yt",
"w799.&>,qqqqqqq,>>>&&+++oooX;;19",
"ggdfX@&>,qqqq,,>>>&&&+++oooXuusd",
"-$$=#.+&>,,,,>>>>&&&+++oooXO#$=:",
"aaaaaXOO&>>>>>>&&&&+@@oooo.rwtaa",
"twtt7woO+&&&&&&&&++++oooO.2;57tt",
"7w77taa.o@@%&&&+++++oooo.225177w",
"tatt99wwoOO@++++++ooooX.<:5uaata",
"7www99t9tXOOooOOoooooX.;1w6w9999",
"aatua99aww.oooOOooo...w26atsattt",
"ddddgddfdggdXX......tsdddddggddd",
"->$-:=;=%-=--:-%-%%---:&-&%-$-><"
};
